<?xml version="1.0" standalone="no"?>
<!DOCTYPE svg PUBLIC "-//W3C//DTD SVG 20010904//EN"
 "http://www.w3.org/TR/2001/REC-SVG-20010904/DTD/svg10.dtd">
<svg version="1.0" xmlns="http://www.w3.org/2000/svg"
 width="500.000000pt" height="500.000000pt" viewBox="0 0 500.000000 500.000000"
 preserveAspectRatio="xMidYMid meet">

<g transform="translate(0.000000,500.000000) scale(0.100000,-0.100000)"
fill="#000000" stroke="none">
<path d="M2165 4909 c-297 -43 -487 -100 -730 -219 -161 -79 -205 -104 -295
-169 -36 -25 -78 -55 -95 -67 -16 -12 -29 -26 -27 -33 1 -7 -2 -10 -8 -6 -19
11 -194 -150 -321 -295 -62 -71 -179 -223 -179 -234 0 -2 -17 -31 -38 -63
-151 -230 -265 -530 -324 -853 -20 -109 -22 -157 -22 -375 0 -214 3 -269 23
-380 43 -247 114 -460 229 -688 l75 -148 -167 -502 c-91 -276 -166 -514 -166
-528 0 -36 33 -75 74 -89 31 -10 57 -3 283 70 136 45 257 85 268 90 11 5 129
45 263 89 l243 81 77 -45 c223 -128 511 -224 797 -266 128 -18 178 -20 384
-16 250 5 349 18 554 72 155 41 219 65 397 148 218 102 441 257 626 433 48 46
172 187 221 250 84 109 94 124 178 269 36 63 104 198 125 250 51 126 58 147
100 296 146 510 89 1138 -147 1619 -79 161 -218 380 -286 452 -7 7 -25 29 -41
48 -100 123 -319 325 -339 313 -6 -3 -7 -1 -3 5 4 6 -6 19 -21 29 -15 10 -34
24 -42 31 -12 12 -80 57 -192 128 -33 20 -206 106 -299 147 -134 59 -387 127
-568 151 -124 18 -501 20 -607 5z m645 -223 c95 -18 234 -53 265 -66 11 -5 31
-12 45 -15 137 -36 436 -184 550 -272 8 -6 51 -39 95 -71 170 -128 405 -390
507 -567 24 -41 142 -279 166 -335 30 -69 92 -290 108 -382 52 -304 43 -599
-25 -898 -28 -122 -153 -447 -190 -495 -5 -5 -23 -37 -41 -70 -44 -80 -155
-236 -238 -332 -115 -132 -305 -293 -487 -411 -55 -35 -332 -164 -420 -195
-269 -95 -623 -136 -900 -103 -200 23 -474 91 -590 145 -11 6 -64 30 -117 55
-53 25 -125 63 -161 85 -35 21 -77 42 -94 45 -23 5 -124 -25 -450 -134 -232
-77 -424 -140 -427 -140 -13 0 -3 36 80 281 47 140 91 274 99 299 7 25 20 64
29 88 8 23 13 42 9 42 -3 0 -1 6 4 13 18 21 43 109 43 147 0 25 -13 58 -42
106 -22 38 -46 72 -52 76 -6 4 -8 8 -4 8 4 0 -5 26 -21 58 -200 395 -270 911
-183 1332 27 128 44 193 71 275 116 354 333 679 626 940 17 15 71 57 120 94
272 204 578 335 924 395 122 22 160 24 376 22 174 -2 263 -8 325 -20z"/>
<path d="M2270 4421 c-89 -9 -244 -36 -295 -52 -207 -65 -280 -94 -402 -159
-215 -115 -385 -252 -542 -435 -87 -102 -143 -184 -134 -198 3 -5 2 -7 -4 -4
-5 3 -31 -30 -58 -75 -41 -69 -67 -122 -135 -283 -11 -25 -44 -133 -63 -205
-51 -191 -66 -509 -33 -715 68 -425 247 -770 556 -1074 296 -291 723 -483
1128 -509 147 -10 398 2 507 22 167 32 336 91 500 173 88 44 260 153 300 190
11 10 46 40 78 66 31 27 54 53 51 59 -4 6 -3 8 3 5 19 -12 192 184 278 317 57
88 141 248 175 336 208 529 163 1132 -120 1621 -37 63 -170 253 -189 269 -3 3
-29 31 -58 63 -206 229 -522 426 -826 516 -225 66 -490 93 -717 72z m500 -79
c199 -40 322 -81 494 -169 285 -144 502 -336 676 -596 207 -309 310 -644 310
-1012 0 -160 -26 -363 -60 -465 -4 -14 -16 -52 -26 -85 -57 -194 -191 -437
-339 -615 -332 -396 -858 -641 -1378 -640 -105 0 -319 27 -412 51 -44 11 -96
24 -115 29 -94 25 -289 113 -415 188 -162 97 -395 308 -497 450 -29 40 -57 79
-63 85 -11 14 -17 24 -78 135 -106 191 -175 398 -208 627 -17 111 -17 383 0
490 16 106 65 297 96 380 30 80 140 303 160 326 8 8 15 19 15 23 0 4 5 12 10
19 6 7 41 53 79 102 288 378 708 621 1191 690 138 20 425 13 560 -13z"/>
<path d="M2305 3910 c-192 -31 -433 -124 -587 -226 -62 -41 -75 -59 -57 -80
17 -20 26 -18 80 21 116 83 394 193 567 225 35 6 118 11 185 11 140 1 157 4
157 29 0 43 -149 52 -345 20z"/>
<path d="M2867 3853 c-4 -3 -7 -15 -7 -25 0 -13 26 -30 93 -62 97 -46 171 -89
251 -146 27 -19 54 -33 60 -32 6 2 8 1 4 -3 -3 -4 12 -23 35 -43 79 -68 220
-217 295 -309 41 -51 78 -93 83 -93 30 0 -23 117 -88 195 -175 208 -363 362
-571 467 -110 56 -141 66 -155 51z"/>
<path d="M2377 3683 c-7 -6 -10 -42 -4 -44 1 0 63 -7 137 -14 174 -18 212 -26
349 -70 98 -32 115 -35 127 -23 8 8 12 21 9 29 -6 16 -187 79 -280 98 -27 6
-71 15 -97 21 -52 11 -231 14 -241 3z"/>
<path d="M2100 3644 c-129 -34 -318 -148 -440 -266 -92 -88 -236 -266 -240
-298 -5 -31 1 -40 23 -40 15 1 33 17 57 52 171 249 385 419 621 494 69 21 87
37 69 58 -15 19 -19 19 -90 0z"/>
<path d="M2280 3494 c-144 -24 -381 -129 -396 -176 -14 -44 24 -50 79 -13 48
33 169 89 234 108 28 8 94 21 146 27 80 10 110 10 196 -4 107 -17 241 -63 338
-117 32 -18 67 -37 78 -43 10 -6 26 -17 34 -24 7 -7 26 -21 40 -30 29 -19 56
-40 112 -89 39 -36 60 -41 78 -19 8 10 6 19 -9 38 -19 26 -161 138 -173 138
-3 0 -17 10 -31 23 -38 35 -242 132 -326 155 -158 43 -257 50 -400 26z"/>
<path d="M1431 3423 c-23 -27 -41 -53 -41 -60 0 -7 -6 -16 -14 -20 -33 -20
-272 -468 -290 -545 -8 -35 10 -46 35 -21 25 24 41 53 139 247 70 137 167 292
242 388 18 23 19 30 8 43 -20 24 -36 18 -79 -32z"/>
<path d="M3177 3433 c-18 -17 -2 -44 51 -89 46 -39 203 -202 247 -257 117
-143 255 -385 311 -544 26 -74 44 -69 44 11 0 60 -5 74 -70 200 -67 131 -107
197 -122 204 -5 2 -8 8 -8 14 0 22 -125 181 -222 283 -143 150 -209 201 -231
178z"/>
<path d="M2301 3249 c-227 -45 -446 -191 -569 -379 -47 -73 -50 -85 -23 -99
21 -12 38 4 84 77 35 55 139 160 198 200 123 83 270 137 408 147 113 9 123 12
119 38 -3 21 -8 22 -88 24 -47 0 -105 -3 -129 -8z"/>
<path d="M1714 3178 c-72 -78 -139 -178 -232 -348 -113 -208 -138 -250 -173
-298 -22 -29 -62 -74 -90 -101 -34 -33 -47 -53 -43 -65 11 -28 47 -17 94 27
83 78 133 154 269 412 61 114 160 263 221 330 49 55 51 58 34 76 -9 10 -20 19
-24 19 -4 0 -29 -24 -56 -52z"/>
<path d="M2666 3215 c-10 -28 5 -41 65 -60 173 -51 377 -192 518 -358 89 -104
137 -177 194 -293 27 -57 54 -101 58 -98 5 3 9 0 9 -5 0 -17 18 -13 29 7 7 13
2 35 -19 83 -135 318 -445 614 -754 719 -71 24 -92 25 -100 5z"/>
<path d="M2310 3026 c-114 -26 -278 -112 -350 -185 -91 -91 -163 -225 -234
-431 -67 -194 -124 -305 -186 -364 -29 -28 -50 -55 -48 -65 4 -18 48 -29 48
-12 0 6 6 11 13 11 25 0 105 97 139 170 28 59 58 129 58 136 0 23 99 281 128
334 69 125 114 177 207 240 28 18 52 36 55 39 3 3 12 7 20 9 8 1 24 7 35 12
95 44 150 54 305 55 137 0 163 -3 225 -24 106 -36 214 -95 290 -159 91 -77 90
-76 109 -69 27 11 18 31 -36 86 -102 101 -258 186 -403 217 -75 17 -301 16
-375 0z"/>
<path d="M3357 2963 c-13 -13 -7 -31 23 -64 43 -48 140 -192 182 -269 54 -101
109 -252 148 -406 19 -78 75 -61 59 18 -22 117 -92 310 -151 418 -37 68 -149
232 -197 288 -19 21 -51 29 -64 15z"/>
<path d="M1323 2912 c-7 -4 -33 -53 -59 -107 -54 -115 -99 -176 -154 -208 -43
-24 -56 -50 -33 -68 20 -17 72 11 135 74 58 57 166 271 151 296 -12 19 -25 23
-40 13z"/>
<path d="M2607 2843 c-4 -3 -7 -14 -7 -24 0 -12 16 -22 53 -34 179 -59 276
-137 388 -315 74 -117 122 -243 154 -407 8 -42 30 -60 51 -42 20 17 14 68 -23
194 -92 316 -303 560 -538 624 -46 13 -69 14 -78 4z"/>
<path d="M2214 2793 c-153 -81 -256 -236 -333 -503 -88 -303 -150 -403 -288
-467 -53 -24 -93 -35 -148 -40 -77 -6 -100 -18 -89 -47 8 -21 107 -22 189 -1
181 47 283 174 375 467 87 278 127 364 209 449 26 27 45 52 42 55 -3 3 -1 4 4
3 13 -4 88 35 109 56 16 17 12 40 -9 49 -7 2 -35 -7 -61 -21z"/>
<path d="M2405 2651 c-73 -19 -225 -116 -225 -143 0 -4 -11 -19 -24 -33 -26
-28 -74 -125 -96 -193 -12 -37 -11 -45 1 -58 24 -23 46 -7 63 44 50 154 122
243 242 300 52 24 70 27 159 27 135 -1 208 -30 299 -121 35 -35 70 -77 78 -94
7 -16 16 -30 19 -30 12 0 79 -160 100 -241 20 -73 23 -109 22 -266 -1 -168 1
-182 18 -186 36 -9 44 19 48 170 5 207 -24 345 -107 508 -16 33 -39 71 -51 84
-12 13 -21 27 -21 30 0 11 -64 76 -111 114 -84 67 -149 90 -274 93 -60 2 -123
0 -140 -5z"/>
<path d="M3211 2592 c-7 -14 -6 -25 4 -38 24 -36 101 -188 117 -234 53 -150
70 -241 73 -410 3 -114 7 -147 19 -154 9 -7 20 -5 30 3 13 11 16 35 16 125 -1
214 -39 383 -130 569 -73 151 -104 185 -129 139z"/>
<path d="M1566 2538 c-9 -12 -16 -28 -16 -34 0 -7 -23 -58 -51 -114 -80 -160
-153 -224 -297 -260 -36 -9 -43 -15 -40 -33 3 -20 9 -22 54 -21 70 2 154 46
225 117 46 45 71 84 118 180 33 67 61 131 63 142 6 45 -30 60 -56 23z"/>
<path d="M2434 2462 c-80 -28 -138 -84 -176 -172 -31 -69 -38 -97 -67 -255
-52 -277 -102 -379 -228 -466 -49 -34 -155 -75 -219 -85 -24 -3 -49 -12 -55
-20 -19 -23 -3 -44 35 -44 63 0 212 48 228 74 4 6 8 7 8 3 0 -14 84 49 127 96
78 85 128 219 172 462 43 241 101 331 229 355 90 17 157 -7 232 -84 46 -47 73
-57 84 -30 8 20 -16 55 -72 104 -87 75 -194 98 -298 62z"/>
<path d="M2484 2240 c-76 -38 -105 -128 -139 -440 -4 -30 -15 -88 -26 -129
-22 -81 -20 -101 11 -101 11 0 20 1 20 3 0 1 9 26 19 55 18 49 26 93 66 361
20 130 39 177 77 197 25 13 35 13 59 3 73 -29 138 -224 138 -409 1 -189 -50
-337 -182 -533 -10 -15 -9 -21 6 -32 27 -20 37 -12 84 58 82 123 129 249 153
410 16 106 2 237 -38 357 -41 125 -74 176 -129 204 -42 21 -69 20 -119 -4z"/>
<path d="M3561 2216 c-9 -11 -10 -29 -2 -72 6 -32 11 -103 11 -158 0 -78 4
-103 16 -117 13 -14 21 -16 36 -8 17 9 19 20 17 92 -3 121 -23 257 -40 268
-19 12 -25 11 -38 -5z"/>
<path d="M2851 2141 c-12 -8 -11 -25 7 -115 26 -127 28 -256 6 -387 -17 -102
-70 -266 -105 -329 -18 -32 -20 -42 -9 -55 19 -23 36 -18 58 18 31 52 80 185
102 277 40 163 37 428 -6 554 -16 46 -27 54 -53 37z"/>
<path d="M2002 2073 c-5 -10 -19 -49 -31 -87 -64 -201 -163 -306 -326 -347
-43 -10 -90 -19 -105 -19 -29 0 -43 -19 -34 -45 8 -19 48 -19 135 -1 142 31
261 119 327 244 42 79 94 231 87 253 -8 24 -41 25 -53 2z"/>
<path d="M1285 1951 c-34 -5 -40 -10 -40 -31 0 -23 4 -25 56 -28 63 -3 92 15
72 46 -11 19 -31 22 -88 13z"/>
<path d="M2533 1938 c-6 -7 -10 -69 -10 -143 0 -145 -20 -232 -74 -335 -32
-59 -104 -142 -156 -179 -37 -25 -43 -56 -13 -66 25 -8 49 7 112 68 132 129
199 310 197 527 -1 41 -4 88 -8 105 -7 32 -31 44 -48 23z"/>
<path d="M3222 1888 c-7 -7 -12 -45 -12 -97 0 -48 -7 -124 -16 -171 -8 -47
-17 -97 -19 -113 -2 -15 -7 -32 -10 -37 -7 -12 12 -50 25 -50 22 0 42 55 59
161 27 160 35 287 20 305 -14 17 -31 18 -47 2z"/>
<path d="M3000 1507 c0 -2 -13 -41 -30 -86 -31 -88 -31 -111 4 -111 18 0 27
14 52 84 32 88 31 116 -6 116 -11 0 -20 -2 -20 -3z"/>
<path d="M2170 1438 c-30 -25 -132 -73 -177 -82 -38 -9 -58 -30 -49 -52 14
-36 173 15 262 82 38 30 43 49 15 64 -24 13 -21 13 -51 -12z"/>
</g>
</svg>
